<svg width="28" height="28" viewBox="0 0 32 32" fill="none" xmlns="http://www.w3.org/2000/svg">
<g clipPath="url(#clip0_1_374)">
<path d="M1.77778 16C1.77778 18.8129 2.6119 21.5626 4.17465 23.9014C5.73741 26.2403 7.95862 28.0632 10.5574 29.1396C13.1562 30.2161 16.0158 30.4977 18.7746 29.9489C21.5335 29.4002 24.0676 28.0456 26.0566 26.0566C28.0456 24.0676 29.4002 21.5335 29.9489 18.7746C30.4977 16.0158 30.2161 13.1562 29.1396 10.5574C28.0632 7.95862 26.2403 5.73741 23.9014 4.17466C21.5626 2.6119 18.8129 1.77778 16 1.77778C12.228 1.77778 8.61055 3.27619 5.94337 5.94337C3.27619 8.61055 1.77778 12.228 1.77778 16ZM28.4444 16C28.4444 18.4613 27.7146 20.8673 26.3472 22.9138C24.9798 24.9602 23.0362 26.5553 20.7623 27.4972C18.4884 28.4391 15.9862 28.6855 13.5722 28.2053C11.1582 27.7252 8.94084 26.5399 7.20045 24.7996C5.46006 23.0592 4.27484 20.8418 3.79467 18.4278C3.3145 16.0138 3.56094 13.5116 4.50283 11.2377C5.44472 8.96379 7.03976 7.02024 9.08624 5.65282C11.1327 4.28541 13.5387 3.55556 16 3.55556C19.3005 3.55556 22.4658 4.86667 24.7995 7.20045C27.1333 9.53424 28.4444 12.6995 28.4444 16Z" fill="#838383"/>
<path d="M7.34222 15.9289L14.1067 22.6933C14.1864 22.7864 14.2844 22.862 14.3947 22.9153C14.505 22.9687 14.6251 22.9987 14.7475 23.0034C14.8699 23.0081 14.992 22.9875 15.1061 22.9428C15.2201 22.8981 15.3237 22.8303 15.4104 22.7437C15.497 22.6571 15.5648 22.5535 15.6095 22.4394C15.6541 22.3253 15.6748 22.2033 15.67 22.0808C15.6653 21.9584 15.6353 21.8383 15.582 21.728C15.5286 21.6178 15.4531 21.5197 15.36 21.44L10.8267 16.8889H24.16C24.3957 16.8889 24.6218 16.7952 24.7885 16.6285C24.9552 16.4618 25.0489 16.2358 25.0489 16C25.0489 15.7643 24.9552 15.5382 24.7885 15.3715C24.6218 15.2048 24.3957 15.1111 24.16 15.1111H10.6667L15.36 10.4178C15.4531 10.3381 15.5286 10.24 15.582 10.1298C15.6353 10.0195 15.6653 9.89936 15.67 9.77694C15.6748 9.65452 15.6541 9.53245 15.6095 9.41838C15.5648 9.30432 15.497 9.20072 15.4104 9.11409C15.3237 9.02747 15.2201 8.95968 15.1061 8.91499C14.992 8.8703 14.8699 8.84968 14.7475 8.85441C14.6251 8.85913 14.505 8.88912 14.3947 8.94247C14.2844 8.99582 14.1864 9.0714 14.1067 9.16445L7.34222 15.9289Z" fill="#838383"/>
</g>
<defs>
<clipPath id="clip0_1_374">
<rect width="32" height="32" fill="white" transform="matrix(0 -1 1 0 0 32)"/>
</clipPath>
</defs>
</svg>
