            <svg width="22" height="22" viewBox="0 0 30 34" fill="none" xmlns="http://www.w3.org/2000/svg">
<path d="M29.6563 24.4906C28.7891 22.9969 27.5 18.7703 27.5 13.25C27.5 9.93479 26.1831 6.75537 23.8389 4.41117C21.4946 2.06696 18.3152 0.75 15 0.75C11.6848 0.75 8.50539 2.06696 6.16119 4.41117C3.81698 6.75537 2.50002 9.93479 2.50002 13.25C2.50002 18.7719 1.20939 22.9969 0.342207 24.4906C0.120755 24.8704 0.00335495 25.3018 0.00184579 25.7414C0.000336628 26.181 0.114772 26.6133 0.333612 26.9945C0.552451 27.3758 0.867957 27.6926 1.24831 27.913C1.62866 28.1334 2.06041 28.2497 2.50002 28.25H8.87658C9.16498 29.6612 9.93193 30.9294 11.0477 31.8403C12.1635 32.7511 13.5597 33.2486 15 33.2486C16.4404 33.2486 17.8365 32.7511 18.9523 31.8403C20.0681 30.9294 20.8351 29.6612 21.1235 28.25H27.5C27.9395 28.2494 28.371 28.133 28.7512 27.9124C29.1313 27.6919 29.4466 27.3751 29.6653 26.9938C29.8839 26.6126 29.9982 26.1805 29.9966 25.741C29.9951 25.3016 29.8777 24.8703 29.6563 24.4906ZM15 30.75C14.2247 30.7498 13.4686 30.5092 12.8356 30.0615C12.2027 29.6138 11.7241 28.9809 11.4656 28.25H18.5344C18.276 28.9809 17.7973 29.6138 17.1644 30.0615C16.5315 30.5092 15.7753 30.7498 15 30.75ZM2.50002 25.75C3.70315 23.6813 5.00002 18.8875 5.00002 13.25C5.00002 10.5978 6.05359 8.0543 7.92895 6.17893C9.80432 4.30357 12.3479 3.25 15 3.25C17.6522 3.25 20.1957 4.30357 22.0711 6.17893C23.9465 8.0543 25 10.5978 25 13.25C25 18.8828 26.2938 23.6766 27.5 25.75H2.50002Z" fill="black"/>
</svg>