<svg xmlns="http://www.w3.org/2000/svg" width="22" height="22" viewBox="0 0 30 30" fill="none">
  <path d="M21.25 17.5C21.5815 17.5 21.8995 17.3683 22.1339 17.1339C22.3683 16.8995 22.5 16.5815 22.5 16.25C22.5 15.9185 22.3683 15.6005 22.1339 15.3661C21.8995 15.1317 21.5815 15 21.25 15C20.9185 15 20.6005 15.1317 20.3661 15.3661C20.1317 15.6005 20 15.9185 20 16.25C20 16.5815 20.1317 16.8995 20.3661 17.1339C20.6005 17.3683 20.9185 17.5 21.25 17.5ZM21.25 22.5C21.5815 22.5 21.8995 22.3683 22.1339 22.1339C22.3683 21.8995 22.5 21.5815 22.5 21.25C22.5 20.9185 22.3683 20.6005 22.1339 20.3661C21.8995 20.1317 21.5815 20 21.25 20C20.9185 20 20.6005 20.1317 20.3661 20.3661C20.1317 20.6005 20 20.9185 20 21.25C20 21.5815 20.1317 21.8995 20.3661 22.1339C20.6005 22.3683 20.9185 22.5 21.25 22.5ZM16.25 16.25C16.25 16.5815 16.1183 16.8995 15.8839 17.1339C15.6495 17.3683 15.3315 17.5 15 17.5C14.6685 17.5 14.3505 17.3683 14.1161 17.1339C13.8817 16.8995 13.75 16.5815 13.75 16.25C13.75 15.9185 13.8817 15.6005 14.1161 15.3661C14.3505 15.1317 14.6685 15 15 15C15.3315 15 15.6495 15.1317 15.8839 15.3661C16.1183 15.6005 16.25 15.9185 16.25 16.25ZM16.25 21.25C16.25 21.5815 16.1183 21.8995 15.8839 22.1339C15.6495 22.3683 15.3315 22.5 15 22.5C14.6685 22.5 14.3505 22.3683 14.1161 22.1339C13.8817 21.8995 13.75 21.5815 13.75 21.25C13.75 20.9185 13.8817 20.6005 14.1161 20.3661C14.3505 20.1317 14.6685 20 15 20C15.3315 20 15.6495 20.1317 15.8839 20.3661C16.1183 20.6005 16.25 20.9185 16.25 21.25ZM8.75 17.5C9.08152 17.5 9.39946 17.3683 9.63388 17.1339C9.8683 16.8995 10 16.5815 10 16.25C10 15.9185 9.8683 15.6005 9.63388 15.3661C9.39946 15.1317 9.08152 15 8.75 15C8.41848 15 8.10054 15.1317 7.86612 15.3661C7.6317 15.6005 7.5 15.9185 7.5 16.25C7.5 16.5815 7.6317 16.8995 7.86612 17.1339C8.10054 17.3683 8.41848 17.5 8.75 17.5ZM8.75 22.5C9.08152 22.5 9.39946 22.3683 9.63388 22.1339C9.8683 21.8995 10 21.5815 10 21.25C10 20.9185 9.8683 20.6005 9.63388 20.3661C9.39946 20.1317 9.08152 20 8.75 20C8.41848 20 8.10054 20.1317 7.86612 20.3661C7.6317 20.6005 7.5 20.9185 7.5 21.25C7.5 21.5815 7.6317 21.8995 7.86612 22.1339C8.10054 22.3683 8.41848 22.5 8.75 22.5Z" fill="#413E3E"/>
  <path fill-rule="evenodd" clip-rule="evenodd" d="M8.75 2.1875C8.99864 2.1875 9.2371 2.28627 9.41291 2.46209C9.58873 2.6379 9.6875 2.87636 9.6875 3.125V4.07875C10.515 4.0625 11.4263 4.0625 12.4288 4.0625H17.57C18.5738 4.0625 19.485 4.0625 20.3125 4.07875V3.125C20.3125 2.87636 20.4113 2.6379 20.5871 2.46209C20.7629 2.28627 21.0014 2.1875 21.25 2.1875C21.4986 2.1875 21.7371 2.28627 21.9129 2.46209C22.0887 2.6379 22.1875 2.87636 22.1875 3.125V4.15875C22.5125 4.18375 22.82 4.215 23.1113 4.25375C24.5763 4.45125 25.7625 4.86625 26.6988 5.80125C27.6338 6.7375 28.0488 7.92375 28.2463 9.38875C28.4375 10.8138 28.4375 12.6325 28.4375 14.93V17.57C28.4375 19.8675 28.4375 21.6875 28.2463 23.1112C28.0488 24.5763 27.6338 25.7625 26.6988 26.6987C25.7625 27.6337 24.5763 28.0487 23.1113 28.2463C21.6863 28.4375 19.8675 28.4375 17.57 28.4375H12.43C10.1325 28.4375 8.3125 28.4375 6.88875 28.2463C5.42375 28.0487 4.2375 27.6337 3.30125 26.6987C2.36625 25.7625 1.95125 24.5763 1.75375 23.1112C1.5625 21.6863 1.5625 19.8675 1.5625 17.57V14.93C1.5625 12.6325 1.5625 10.8125 1.75375 9.38875C1.95125 7.92375 2.36625 6.7375 3.30125 5.80125C4.2375 4.86625 5.42375 4.45125 6.88875 4.25375C7.18 4.215 7.48875 4.18375 7.8125 4.15875V3.125C7.8125 2.87636 7.91127 2.6379 8.08709 2.46209C8.2629 2.28627 8.50136 2.1875 8.75 2.1875ZM7.1375 6.1125C5.88125 6.28125 5.15625 6.59875 4.6275 7.1275C4.09875 7.65625 3.78125 8.38125 3.6125 9.63875C3.58375 9.85125 3.56 10.0763 3.54 10.3125H26.46C26.44 10.075 26.4163 9.85125 26.3875 9.6375C26.2188 8.38125 25.9013 7.65625 25.3725 7.1275C24.8438 6.59875 24.1188 6.28125 22.8613 6.1125C21.5775 5.94 19.8838 5.9375 17.5 5.9375H12.5C10.1163 5.9375 8.42375 5.94 7.1375 6.1125ZM3.4375 15C3.4375 13.9325 3.4375 13.0037 3.45375 12.1875H26.5463C26.5625 13.0037 26.5625 13.9325 26.5625 15V17.5C26.5625 19.8837 26.56 21.5775 26.3875 22.8625C26.2188 24.1188 25.9013 24.8438 25.3725 25.3725C24.8438 25.9013 24.1188 26.2188 22.8613 26.3875C21.5775 26.56 19.8838 26.5625 17.5 26.5625H12.5C10.1163 26.5625 8.42375 26.56 7.1375 26.3875C5.88125 26.2188 5.15625 25.9013 4.6275 25.3725C4.09875 24.8438 3.78125 24.1187 3.6125 22.8612C3.44 21.5775 3.4375 19.8837 3.4375 17.5V15Z" fill="#413E3E"/>
</svg>