<svg xmlns="http://www.w3.org/2000/svg" width="26" height="26" viewBox="0 0 38 38" fill="none">
  <path d="M22.1667 23.75V26.9167C22.1667 27.3366 21.9999 27.7393 21.7029 28.0363C21.406 28.3332 21.0033 28.5 20.5833 28.5H9.5L4.75 33.25V17.4167C4.75 16.9967 4.91681 16.594 5.21375 16.2971C5.51068 16.0001 5.91341 15.8333 6.33333 15.8333H9.5M33.25 22.1667L28.5 17.4167H17.4167C16.9967 17.4167 16.594 17.2499 16.2971 16.9529C16.0001 16.656 15.8333 16.2533 15.8333 15.8333V6.33333C15.8333 5.91341 16.0001 5.51068 16.2971 5.21375C16.594 4.91681 16.9967 4.75 17.4167 4.75H31.6667C32.0866 4.75 32.4893 4.91681 32.7863 5.21375C33.0832 5.51068 33.25 5.91341 33.25 6.33333V22.1667Z" stroke="white" stroke-width="2" stroke-linecap="round" stroke-linejoin="round"/>
</svg>