<svg xmlns="http://www.w3.org/2000/svg" width="17" height="17" viewBox="0 0 20 20" fill="none">
  <g clip-path="url(#clip0_271_3992)">
    <path d="M10 0C4.47297 0 0 4.47254 0 10C0 15.5271 4.47254 20 10 20C15.527 20 20 15.5275 20 10C20 4.47293 15.5275 0 10 0ZM10 18.4375C5.33656 18.4375 1.5625 14.6638 1.5625 10C1.5625 5.33652 5.33621 1.5625 10 1.5625C14.6634 1.5625 18.4375 5.33621 18.4375 10C18.4375 14.6635 14.6638 18.4375 10 18.4375Z" fill="#28A6FA"/>
    <path d="M13.4211 12.3163L11.1046 9.99978L13.4211 7.68329C13.7262 7.37821 13.7262 6.88356 13.4212 6.57845C13.116 6.27333 12.6214 6.27337 12.3163 6.57845L9.9998 8.89493L7.68327 6.57845C7.37823 6.27333 6.88351 6.27333 6.57843 6.57845C6.27335 6.88356 6.27335 7.37821 6.57847 7.68329L8.89495 9.99978L6.57847 12.3163C6.27335 12.6214 6.27331 13.116 6.57843 13.4211C6.88362 13.7263 7.37827 13.7261 7.68327 13.4211L9.9998 11.1046L12.3163 13.4211C12.6213 13.7262 13.116 13.7262 13.4212 13.4211C13.7263 13.116 13.7262 12.6213 13.4211 12.3163Z" fill="#28A6FA"/>
  </g>
  <defs>
    <clipPath id="clip0_271_3992">
      <rect width="20" height="20" fill="white"/>
    </clipPath>
  </defs>
</svg>