<svg xmlns="http://www.w3.org/2000/svg" width="20" height="20" viewBox="0 0 20 20" fill="none">
<path d="M15.625 2.51855C15.1469 2.51855 14.6769 2.70605 14.3163 3.06605L8.125 9.2373L7.9875 9.3748L7.95 9.57043L7.51875 11.7579L7.325 12.6754L8.24188 12.4817L10.4294 12.0504L10.625 12.0129L10.7625 11.8754L16.9338 5.68418C17.1922 5.42481 17.3681 5.09475 17.4393 4.73558C17.5106 4.37641 17.4739 4.0042 17.3339 3.66583C17.194 3.32747 16.957 3.03809 16.6529 2.83415C16.3488 2.63021 15.9912 2.52084 15.625 2.5198V2.51855ZM15.625 3.73105C15.7719 3.73105 15.915 3.80605 16.055 3.94543C16.3338 4.22418 16.3338 4.52543 16.055 4.8048L10 10.8586L8.925 11.0736L9.14063 9.99855L15.1956 3.94355C15.335 3.80418 15.4781 3.72918 15.625 3.72918V3.73105ZM2.5 4.9998V17.4998H15V9.2573L13.75 10.5073V16.2498H3.75V6.2498H9.4925L10.7425 4.9998H2.5Z" fill="white"/>
</svg>