<svg width="18" height="18" viewBox="0 0 20 18" fill="none" xmlns="http://www.w3.org/2000/svg">
<path d="M15.8337 1.5H4.16699C2.98866 1.5 2.39949 1.5 2.03366 1.84333C1.66699 2.18667 1.66699 2.74 1.66699 3.84583V4.42083C1.66699 5.285 1.66699 5.7175 1.88366 6.07583C2.10033 6.43417 2.49449 6.6575 3.28533 7.1025L5.71283 8.46917C6.24283 8.7675 6.50866 8.91667 6.69866 9.08167C7.09366 9.42417 7.33699 9.8275 7.44699 10.3233C7.50033 10.56 7.50033 10.8383 7.50033 11.3942V13.6192C7.50033 14.3767 7.50033 14.7558 7.71033 15.0508C7.92033 15.3467 8.29366 15.4925 9.03866 15.7842C10.6045 16.3958 11.387 16.7017 11.9437 16.3533C12.5003 16.0058 12.5003 15.21 12.5003 13.6183V11.3933C12.5003 10.8383 12.5003 10.56 12.5537 10.3225C12.6583 9.8368 12.9219 9.39987 13.3028 9.08083C13.492 8.91667 13.7578 8.7675 14.2878 8.46833L16.7153 7.10167C17.5053 6.6575 17.9012 6.435 18.117 6.07667C18.3337 5.71833 18.3337 5.285 18.3337 4.42V3.845C18.3337 2.74 18.3337 2.18667 17.967 1.84333C17.602 1.5 17.0128 1.5 15.8337 1.5Z" stroke="white" stroke-width="1.5"/>
</svg>
