<svg xmlns="http://www.w3.org/2000/svg" width="16" height="16" viewBox="0 0 20 20" fill="none">
  <path d="M3.68959 0.668541C3.4933 0.461019 3.25741 0.294955 2.99585 0.180162C2.73429 0.0653694 2.45237 0.00417863 2.16675 0.000206635C1.88114 -0.00376536 1.59763 0.049562 1.33298 0.157037C1.06832 0.264511 0.827902 0.423952 0.625923 0.625935C0.423944 0.827917 0.264505 1.06834 0.157034 1.333C0.0495605 1.59766 -0.00376511 1.88117 0.000205994 2.16679C0.004179 2.45241 0.0653687 2.73433 0.180159 2.9959C0.294949 3.25747 0.46101 3.49336 0.668528 3.68965L6.93005 9.95128C6.93834 9.95955 6.94492 9.96938 6.94941 9.9802C6.9539 9.99101 6.95621 10.0026 6.95621 10.0143C6.95621 10.026 6.9539 10.0376 6.94941 10.0485C6.94492 10.0593 6.93834 10.0691 6.93005 10.0774L0.668528 16.339C0.467409 16.5368 0.307449 16.7725 0.197872 17.0325C0.088295 17.2924 0.031271 17.5715 0.0300903 17.8536C0.0289078 18.1357 0.0835915 18.4153 0.190987 18.6761C0.29838 18.937 0.456362 19.174 0.655815 19.3735C0.85527 19.573 1.09225 19.7311 1.35309 19.8385C1.61392 19.946 1.89345 20.0007 2.17556 19.9996C2.45766 19.9985 2.73675 19.9416 2.99673 19.832C3.2567 19.7225 3.49243 19.5626 3.6903 19.3615L9.95182 13.0999C9.96009 13.0916 9.96991 13.085 9.98073 13.0805C9.99155 13.0761 10.0031 13.0737 10.0149 13.0737C10.0266 13.0737 10.0382 13.0761 10.049 13.0805C10.0598 13.085 10.0696 13.0916 10.0779 13.0999L16.3394 19.3615C16.5372 19.5627 16.7729 19.7226 17.0329 19.8322C17.2928 19.9418 17.5719 19.9988 17.854 20C18.1361 20.0012 18.4157 19.9465 18.6765 19.8391C18.9374 19.7317 19.1744 19.5737 19.3739 19.3742C19.5734 19.1748 19.7314 18.9378 19.8389 18.677C19.9463 18.4161 20.0011 18.1366 20 17.8545C19.9989 17.5724 19.9419 17.2933 19.8324 17.0333C19.7229 16.7733 19.563 16.5376 19.3619 16.3397L13.1004 10.0781C13.0921 10.0698 13.0855 10.06 13.081 10.0492C13.0765 10.0383 13.0742 10.0267 13.0742 10.015C13.0742 10.0033 13.0765 9.99173 13.081 9.98091C13.0855 9.97009 13.0921 9.96026 13.1004 9.95199L19.3619 3.69036C19.7573 3.28853 19.978 2.74672 19.9757 2.18295C19.9735 1.61918 19.7486 1.07913 19.35 0.680438C18.9514 0.281743 18.4114 0.0567056 17.8477 0.0543438C17.2839 0.051982 16.7421 0.272487 16.3401 0.667828L10.0786 6.92946C10.0703 6.93775 10.0605 6.94433 10.0497 6.94882C10.0389 6.95331 10.0273 6.95562 10.0156 6.95562C10.0039 6.95562 9.99226 6.95331 9.98144 6.94882C9.97063 6.94433 9.9608 6.93775 9.95253 6.92946L3.69101 0.667828L3.68959 0.668541Z" fill="#EE1818"/>
</svg>