<svg xmlns="http://www.w3.org/2000/svg" width="17" height="17" viewBox="0 0 20 20" fill="none">
  <path d="M16.8453 4.77401L13.6453 1.17401C13.5955 1.1184 13.5364 1.07441 13.4714 1.04455C13.4064 1.01469 13.3369 0.999553 13.2667 1.00001H2.6C2.17565 1.00001 1.76869 1.18965 1.46863 1.52722C1.16857 1.86478 1 2.32262 1 2.80001V17.2C1 17.6774 1.16857 18.1352 1.46863 18.4728C1.76869 18.8104 2.17565 19 2.6 19H15.4C15.8243 19 16.2313 18.8104 16.5314 18.4728C16.8314 18.1352 17 17.6774 17 17.2V5.20001C17.0004 5.12104 16.9869 5.04277 16.9604 4.96966C16.9339 4.89656 16.8948 4.83007 16.8453 4.77401ZM11.1333 2.20001V5.80001H6.86666V2.20001H11.1333ZM4.73333 17.8V13.6C4.73333 13.4409 4.78952 13.2883 4.88954 13.1757C4.98956 13.0632 5.12522 13 5.26666 13H12.7333C12.8748 13 13.0104 13.0632 13.1105 13.1757C13.2105 13.2883 13.2667 13.4409 13.2667 13.6V17.8H4.73333ZM15.9333 17.2C15.9333 17.3591 15.8771 17.5117 15.7771 17.6243C15.6771 17.7368 15.5414 17.8 15.4 17.8H14.3333V13.6C14.3333 13.1226 14.1648 12.6648 13.8647 12.3272C13.5646 11.9896 13.1577 11.8 12.7333 11.8H5.26666C4.84232 11.8 4.43535 11.9896 4.13529 12.3272C3.83524 12.6648 3.66667 13.1226 3.66667 13.6V17.8H2.6C2.45855 17.8 2.3229 17.7368 2.22288 17.6243C2.12286 17.5117 2.06667 17.3591 2.06667 17.2V2.80001C2.06667 2.64088 2.12286 2.48827 2.22288 2.37575C2.3229 2.26322 2.45855 2.20001 2.6 2.20001H5.8V5.80001C5.8 6.11827 5.91238 6.42349 6.11242 6.64853C6.31246 6.87358 6.58377 7.00001 6.86666 7.00001H11.1333C11.4162 7.00001 11.6875 6.87358 11.8876 6.64853C12.0876 6.42349 12.2 6.11827 12.2 5.80001V2.20001H13.048L15.9333 5.44601V17.2Z" fill="white"/>
</svg>