            <svg width="22" height="22" viewBox="0 0 32 34" fill="none" xmlns="http://www.w3.org/2000/svg">
<path d="M16.02 0.75C17.2433 0.763333 18.4617 0.905 19.6567 1.17167C19.9109 1.22842 20.141 1.36317 20.3149 1.5571C20.4889 1.75103 20.5978 1.99445 20.6267 2.25333L20.91 4.79833C20.95 5.15714 21.0737 5.50155 21.2711 5.80384C21.4684 6.10614 21.734 6.35788 22.0464 6.53882C22.3589 6.71975 22.7094 6.82482 23.0698 6.84558C23.4303 6.86634 23.7905 6.8022 24.1217 6.65833L26.455 5.63333C26.6921 5.52892 26.9557 5.50074 27.2095 5.55269C27.4633 5.60464 27.6947 5.73416 27.8717 5.92333C29.5588 7.72502 30.8153 9.88589 31.5467 12.2433C31.6231 12.4912 31.6206 12.7568 31.5393 13.0031C31.4581 13.2495 31.3022 13.4645 31.0933 13.6183L29.025 15.145C28.7336 15.3586 28.4966 15.6379 28.3332 15.9602C28.1699 16.2824 28.0848 16.6387 28.0848 17C28.0848 17.3613 28.1699 17.7176 28.3332 18.0398C28.4966 18.3621 28.7336 18.6414 29.025 18.855L31.0967 20.38C31.3059 20.5339 31.462 20.7492 31.5432 20.9959C31.6245 21.2426 31.6268 21.5085 31.55 21.7567C30.8189 24.1138 29.5629 26.2746 27.8767 28.0767C27.7 28.2658 27.469 28.3954 27.2156 28.4476C26.9621 28.4999 26.6987 28.4722 26.4617 28.3683L24.1183 27.34C23.7876 27.195 23.4275 27.1299 23.067 27.15C22.7064 27.17 22.3557 27.2747 22.0432 27.4555C21.7306 27.6362 21.465 27.8881 21.2678 28.1906C21.0707 28.4931 20.9475 28.8377 20.9083 29.1967L20.625 31.74C20.5967 31.9959 20.4901 32.2367 20.3198 32.4297C20.1494 32.6227 19.9237 32.7585 19.6733 32.8183C17.2592 33.3927 14.7441 33.3927 12.33 32.8183C12.0793 32.7588 11.8532 32.6232 11.6825 32.4301C11.5119 32.2371 11.4051 31.9961 11.3767 31.74L11.095 29.2C11.0541 28.8422 10.9298 28.4989 10.7322 28.1978C10.5346 27.8968 10.2691 27.6462 9.95715 27.4663C9.64515 27.2864 9.29531 27.1821 8.93573 27.1619C8.57615 27.1418 8.21684 27.2062 7.88666 27.35L5.54333 28.3767C5.30609 28.4809 5.04232 28.5088 4.78852 28.4565C4.53473 28.4043 4.30344 28.2745 4.12666 28.085C2.44011 26.2809 1.18473 24.1177 0.454993 21.7583C0.378154 21.5102 0.38052 21.2443 0.461764 20.9976C0.543008 20.7509 0.699093 20.5356 0.908326 20.3817L2.97999 18.855C3.2714 18.6414 3.50839 18.3621 3.67174 18.0398C3.8351 17.7176 3.92022 17.3613 3.92022 17C3.92022 16.6387 3.8351 16.2824 3.67174 15.9602C3.50839 15.6379 3.2714 15.3586 2.97999 15.145L0.908326 13.6217C0.699093 13.4677 0.543008 13.2525 0.461764 13.0057C0.38052 12.759 0.378154 12.4931 0.454993 12.245C1.18635 9.88755 2.44287 7.72668 4.12999 5.925C4.30697 5.73582 4.53835 5.60631 4.79214 5.55436C5.04592 5.5024 5.30958 5.53058 5.54666 5.635L7.87999 6.66C8.21169 6.80379 8.57249 6.86777 8.9334 6.84681C9.29432 6.82585 9.64529 6.72054 9.95811 6.53933C10.2709 6.35811 10.5369 6.10606 10.7346 5.8034C10.9324 5.50075 11.0564 5.15594 11.0967 4.79667L11.38 2.25333C11.4086 1.99392 11.5177 1.74997 11.6919 1.55569C11.8662 1.36141 12.0969 1.22654 12.3517 1.17C13.5567 0.903688 14.786 0.762937 16.02 0.75ZM16.02 3.25C15.264 3.25888 14.5097 3.32406 13.7633 3.445L13.58 5.07333C13.4966 5.82217 13.2385 6.54095 12.8264 7.17174C12.4143 7.80254 11.8598 8.3277 11.2076 8.7049C10.5553 9.08211 9.82357 9.30081 9.07131 9.34339C8.31904 9.38596 7.5673 9.25121 6.87666 8.95L5.37833 8.29333C4.42572 9.44981 3.6675 10.7535 3.13333 12.1533L4.46166 13.1317C5.06878 13.5776 5.56245 14.1602 5.90276 14.8323C6.24308 15.5044 6.42049 16.2471 6.42065 17.0004C6.42081 17.7537 6.24372 18.4965 5.9037 19.1687C5.56367 19.841 5.07026 20.4238 4.46333 20.87L3.13166 21.85C3.66499 23.2533 4.42499 24.56 5.37833 25.72L6.88666 25.0583C7.57581 24.7574 8.32598 24.6226 9.07678 24.6645C9.82758 24.7065 10.558 24.9242 11.2094 25.3C11.8607 25.6759 12.4146 26.1994 12.8267 26.8284C13.2387 27.4574 13.4973 28.1744 13.5817 28.9217L13.7633 30.5617C15.2467 30.8117 16.7617 30.8117 18.2433 30.5617L18.4267 28.9217C18.5096 28.1735 18.7673 27.4553 19.179 26.825C19.5907 26.1948 20.1448 25.6702 20.7965 25.2935C21.4483 24.9169 22.1795 24.6987 22.9311 24.6567C23.6827 24.6147 24.4336 24.75 25.1233 25.0517L26.63 25.7117C27.5834 24.5542 28.3421 23.2494 28.8767 21.8483L27.5467 20.8683C26.9392 20.4226 26.4453 19.8401 26.1047 19.168C25.7642 18.4959 25.5867 17.753 25.5865 16.9996C25.5864 16.2461 25.7636 15.5032 26.1038 14.831C26.444 14.1587 26.9378 13.576 27.545 13.13L28.8733 12.1517C28.3388 10.7511 27.58 9.44687 26.6267 8.29L25.1317 8.945C24.4412 9.24725 23.6894 9.38291 22.9369 9.34102C22.1844 9.29914 21.4523 9.08089 20.7997 8.70389C20.1471 8.32689 19.5922 7.80171 19.18 7.17076C18.7678 6.5398 18.5097 5.82075 18.4267 5.07167L18.245 3.445C17.5098 3.32482 16.7649 3.25964 16.02 3.25ZM16 10.75C17.6576 10.75 19.2473 11.4085 20.4194 12.5806C21.5915 13.7527 22.25 15.3424 22.25 17C22.25 18.6576 21.5915 20.2473 20.4194 21.4194C19.2473 22.5915 17.6576 23.25 16 23.25C14.3424 23.25 12.7527 22.5915 11.5806 21.4194C10.4085 20.2473 9.74999 18.6576 9.74999 17C9.74999 15.3424 10.4085 13.7527 11.5806 12.5806C12.7527 11.4085 14.3424 10.75 16 10.75ZM16 13.25C15.0054 13.25 14.0516 13.6451 13.3483 14.3483C12.6451 15.0516 12.25 16.0054 12.25 17C12.25 17.9946 12.6451 18.9484 13.3483 19.6516C14.0516 20.3549 15.0054 20.75 16 20.75C16.9946 20.75 17.9484 20.3549 18.6516 19.6516C19.3549 18.9484 19.75 17.9946 19.75 17C19.75 16.0054 19.3549 15.0516 18.6516 14.3483C17.9484 13.6451 16.9946 13.25 16 13.25Z" fill="black"/>
</svg>