<svg width="15" height="15" viewBox="0 0 20 20" fill="none" xmlns="http://www.w3.org/2000/svg">
<path fill-rule="evenodd" clip-rule="evenodd" d="M8.49977 1.91687e-08C7.14436 0.000115492 5.80863 0.324364 4.60402 0.945694C3.39941 1.56702 2.36086 2.46742 1.575 3.57175C0.789144 4.67609 0.278775 5.95235 0.0864735 7.29404C-0.105828 8.63574 0.0255146 10.004 0.469544 11.2846C0.913572 12.5652 1.65741 13.7211 2.639 14.6557C3.62059 15.5904 4.81147 16.2768 6.11228 16.6576C7.41309 17.0384 8.78611 17.1026 10.1168 16.8449C11.4475 16.5872 12.6972 16.015 13.7618 15.176L17.4138 18.828C17.6024 19.0102 17.855 19.111 18.1172 19.1087C18.3794 19.1064 18.6302 19.0012 18.8156 18.8158C19.001 18.6304 19.1062 18.3796 19.1084 18.1174C19.1107 17.8552 19.0099 17.6026 18.8278 17.414L15.1758 13.762C16.1638 12.5086 16.7789 11.0024 16.9509 9.41573C17.1228 7.82905 16.8446 6.22602 16.148 4.79009C15.4514 3.35417 14.3646 2.14336 13.0121 1.29623C11.6595 0.449106 10.0957 -0.000107143 8.49977 1.91687e-08ZM1.99977 8.5C1.99977 6.77609 2.68458 5.12279 3.90357 3.90381C5.12256 2.68482 6.77586 2 8.49977 2C10.2237 2 11.877 2.68482 13.096 3.90381C14.3149 5.12279 14.9998 6.77609 14.9998 8.5C14.9998 10.2239 14.3149 11.8772 13.096 13.0962C11.877 14.3152 10.2237 15 8.49977 15C6.77586 15 5.12256 14.3152 3.90357 13.0962C2.68458 11.8772 1.99977 10.2239 1.99977 8.5Z" fill="#fff"/>
</svg>
